<?xml version="1.0" encoding="UTF-8"?>
<svg width="190" height="300" viewBox="0 0 190 300" fill="none" xmlns="http://www.w3.org/2000/svg">
  <!-- 鼠标轮廓 -->
  <path d="M95 0C42.533 0 10 34.772 10 89V211C10 265.228 42.533 300 95 300C147.467 300 180 265.228 180 211V89C180 34.772 147.467 0 95 0Z" fill="url(#paint0_linear)" stroke="url(#paint1_linear)" stroke-width="2"/>
  
  <!-- 左右键分隔线 -->
  <path d="M95 10V90" stroke="url(#paint2_linear)" stroke-width="1.5"/>
  
  <!-- 滚轮区域 -->
  <rect x="85" y="35" width="20" height="40" rx="10" fill="url(#paint3_linear)" stroke="url(#paint4_linear)" stroke-width="1"/>
  
  <!-- 渐变定义 -->
  <defs>
    <linearGradient id="paint0_linear" x1="95" y1="0" x2="95" y2="300" gradientUnits="userSpaceOnUse">
      <stop stop-color="#FCFCFC"/>
      <stop offset="1" stop-color="#F0F0F0"/>
    </linearGradient>
    <linearGradient id="paint1_linear" x1="95" y1="0" x2="95" y2="300" gradientUnits="userSpaceOnUse">
      <stop stop-color="#E0E0E0"/>
      <stop offset="1" stop-color="#CCCCCC"/>
    </linearGradient>
    <linearGradient id="paint2_linear" x1="95" y1="10" x2="95" y2="90" gradientUnits="userSpaceOnUse">
      <stop stop-color="#E0E0E0"/>
      <stop offset="1" stop-color="#CCCCCC"/>
    </linearGradient>
    <linearGradient id="paint3_linear" x1="95" y1="35" x2="95" y2="75" gradientUnits="userSpaceOnUse">
      <stop stop-color="#E8E8E8"/>
      <stop offset="1" stop-color="#D8D8D8"/>
    </linearGradient>
    <linearGradient id="paint4_linear" x1="95" y1="35" x2="95" y2="75" gradientUnits="userSpaceOnUse">
      <stop stop-color="#CCCCCC"/>
      <stop offset="1" stop-color="#BBBBBB"/>
    </linearGradient>
  </defs>
  
  <!-- 阴影效果 -->
  <ellipse cx="95" cy="290" rx="70" ry="10" fill="black" fill-opacity="0.05"/>
  
  <!-- 鼠标高光 -->
  <path d="M30 100C30 60 55 20 95 20C135 20 160 60 160 100V180C160 220 135 260 95 260C55 260 30 220 30 180V100Z" fill="url(#paint5_radial)" fill-opacity="0.3"/>
  
  <defs>
    <radialGradient id="paint5_radial" cx="0" cy="0" r="1" gradientUnits="userSpaceOnUse" gradientTransform="translate(95 70) rotate(90) scale(150 100)">
      <stop stop-color="white"/>
      <stop offset="1" stop-color="white" stop-opacity="0"/>
    </radialGradient>
  </defs>
</svg> 